# xmcd
#
# Track frame offsets: 
#        150
#        18265
#        41140
#        56315
#        74982
#        93452
#        119237
#        149051
#        165390
#        185205
#        199558
#        233110
#        251131
#        272482
#        297084
#        314152
#
# Disc length: 4792 seconds
#
# Revision: 1
# Processed by: cddbd v1.5.2PL0 Copyright (c) Steve Scherf et al.
# Submitted via: ExactAudioCopy v1.3
#
DISCID=0212b610
DTITLE=Various Artist - Akella Presents - Vol.45 - Blues Instrumental
DTITLE=CD2
DYEAR=2014
DGENRE=Blues
TTITLE0=Van Wilks - Valley Of Fire
TTITLE1=Ronnie Earl - Blue Guitar
TTITLE2=Vargas Blues Band - Spanish Fly
TTITLE3=Alvin Lee - Lost In Love
TTITLE4=Dr. Goodvibe - Lily Was Here
TTITLE5=Walter Trout - Marie's Mood
TTITLE6=Buddy Guy - Remembering Stevie
TTITLE7=Elmore James Jr - Dustin'
TTITLE8=Ray Manzarek and Roy Rogers - As You Leave
TTITLE9=The Blue Hawaiians - Martini Five-O
TTITLE10=Lucky Peterson - Beyond Cool
TTITLE11=Gregg Rolie - Domingo
TTITLE12=Bernie Marsden - Au Revoir Pebble Mill
TTITLE13=Vargas Blues Band - Buenos Aires Blues
TTITLE14=Ronnie Earl - Pastorale
TTITLE15=Melvin Taylor - Chitlins Con Carne
EXTD=
EXTT0=
EXTT1=
EXTT2=
EXTT3=
EXTT4=
EXTT5=
EXTT6=
EXTT7=
EXTT8=
EXTT9=
EXTT10=
EXTT11=
EXTT12=
EXTT13=
EXTT14=
EXTT15=
PLAYORDER=
